<svg xmlns="http://www.w3.org/2000/svg" viewBox="0 0 24 24" fill="#f2762e" aria-hidden="true">
  <path d="M18 12a1 1 0 1 1-2 0 1 1 0 0 1 2 0ZM7 5a1 1 0 0 0 1-1 2 2 0 0 1 4 0 1 1 0 0 0 2 0 4 4 0 0 0-8 0 1 1 0 0 0 1 1Zm17 8v2c0 1.106-.748 1.779-1.568 1.954A8.1 8.1 0 0 1 19 20.908V21a3 3 0 0 1-5.829 1h-2.343A3 3 0 0 1 5 21v-.079a8.2 8.2 0 0 1-3.983-7.451 7.72 7.72 0 0 1 .705-2.756A3 3 0 0 1 3 5a1 1 0 0 1 0 2 1 1 0 0 0-.177 1.984A8.38 8.38 0 0 1 9.266 6h5.363a6.32 6.32 0 0 1 3.927-2.946A2 2 0 0 1 21 5v3.715a8.25 8.25 0 0 1 1.432 2.327C23.252 11.217 24 11.89 24 13Zm-2 0h-.294a1 1 0 0 1-.958-.715 6.34 6.34 0 0 0-1.463-2.477A1 1 0 0 1 19 9.11V5.004c-.975.232-2.265.83-2.764 2.335a1 1 0 0 1-.99.684C15.178 8.02 9.266 8 9.266 8c-3.303 0-6.05 2.459-6.253 5.599a6.17 6.17 0 0 0 3.417 5.815 1 1 0 0 1 .57.903V21a1 1 0 0 0 2 0 1 1 0 0 1 1-1h4a1 1 0 0 1 1 1 1 1 0 0 0 2 0v-.694a1 1 0 0 1 .569-.902 6.16 6.16 0 0 0 3.179-3.688 1 1 0 0 1 .958-.715H22Z"/>
</svg>
